#!OML:ASF F:\VICON\USERDATA\INSTALL\rory3\rory3.ASF
:FULLY-SPECIFIED
:DEGREES
647
root -1.30172 29.1052 -6.6702 6.14778 -25.017 -358.657
lowerback 3.46058 -0.0293076 -0.635786
upperback 1.20874 -0.0507952 1.57979
thorax -0.698261 -0.0304942 1.97861
lowerneck -14.1847 2.92033 -10.2177
upperneck 41.855 8.29619 -1.62824
head 17.65 1.33924 2.51495
rclavicle -4.36332e-014 -7.95139e-016
rhumerus -29.8894 -2.40271 -79.4974
rradius 37.5819
rwrist 17.4406
rhand -21.9896 3.35069
rfingers 7.12502
rthumb 4.41877 -26.5832
lclavicle -4.36332e-014 -7.95139e-016
lhumerus -31.7796 17.4537 75.1671
lradius 34.5374
lwrist -0.242531
lhand -18.2889 24.8979
lfingers 7.12502
lthumb 7.9915 54.7268
rfemur -13.4264 6.53808 17.9571
rtibia 28.8209
rfoot -17.3983 1.4023
rtoes 8.46346
lfemur -20.9557 -9.57745 -14.5286
ltibia 21.24
lfoot -11.6378 -24.5846
ltoes -31.3245
648
root -1.34249 29.1066 -6.69102 6.15351 -24.2898 -358.616
lowerback 3.38955 0.0464458 -0.696051
upperback 1.24729 0.0480769 1.62676
thorax -0.622947 0.0180065 2.05674
lowerneck -14.3517 2.8698 -10.5241
upperneck 41.9115 8.26687 -1.35921
head 17.6918 1.31744 2.69443
rclavicle 2.48481e-014 8.74653e-015
rhumerus -29.633 -1.92904 -79.4891
rradius 37.2363
rwrist 17.4855
rhand -21.9352 2.6572
rfingers 7.12502
rthumb 4.47136 -27.2756
lclavicle 2.48481e-014 8.74653e-015
lhumerus -31.8543 17.2989 75.4972
lradius 34.6812
lwrist -0.32941
lhand -18.0255 25.0415
lfingers 7.12502
lthumb 8.24571 54.8606
rfemur -13.3168 6.26524 18.1561
rtibia 28.7732
rfoot -17.61 1.03598
rtoes 8.28558
lfemur -21.0826 -8.86493 -14.7518
ltibia 21.6136
lfoot -12.4791 -23.0413
ltoes -31.6644
649
root -1.38228 29.1097 -6.71093 6.13467 -23.5261 -358.477
lowerback 3.39594 0.0496322 -0.90094
upperback 1.18661 0.0468423 1.64219
thorax -0.688758 0.0182156 2.18794
lowerneck -14.3053 2.87083 -10.5264
upperneck 41.9299 8.27837 -1.35154
head 17.6894 1.32851 2.70097
rclavicle 1.26228e-014 -2.3059e-014
rhumerus -29.5336 -1.42175 -79.5243
rradius 36.8659
rwrist 17.7097
rhand -21.9068 2.67585
rfingers 7.12502
rthumb 4.49879 -27.2564
lclavicle 1.26228e-014 -2.3059e-014
lhumerus -32.1404 17.2528 75.6994
lradius 34.6494
lwrist -0.0308653
lhand -17.3785 25.8308
lfingers 7.12502
lthumb 8.87011 55.6244
rfemur -13.1966 5.96644 18.2576
rtibia 28.7032
rfoot -17.8145 0.64204
rtoes 8.1963
lfemur -21.1964 -8.10145 -15.13
ltibia 21.9796
lfoot -13.2001 -21.3132
ltoes -32.4162
650
root -1.42127 29.1134 -6.72745 6.10241 -22.6569 -358.368
lowerback 3.42647 0.0154126 -0.982128
upperback 1.11071 -0.000495539 1.62558
thorax -0.781492 -0.00393385 2.21854
lowerneck -14.1481 2.89251 -10.4549
upperneck 41.9402 8.2716 -1.33464
head 17.655 1.3486 2.69172
rclavicle 8.65707e-014 6.36111e-015
rhumerus -29.4088 -1.15411 -79.5472
rradius 36.4418
rwrist 18.1735
rhand -21.7114 2.63129
rfingers 7.12502
rthumb 4.68741 -27.2969
lclavicle 8.65707e-014 6.36111e-015
lhumerus -32.3287 17.173 75.773
lradius 34.4486
lwrist -0.0340307
lhand -17.0538 26.1255
lfingers 7.12502
lthumb 9.18342 55.9055
rfemur -13.0048 5.66083 18.395
rtibia 28.5963
rfoot -18.0828 0.162412
rtoes 8.35518
lfemur -21.2986 -7.3807 -15.5009
ltibia 22.3915
lfoot -13.6388 -19.7044
ltoes -33.1322
651
root -1.45955 29.1194 -6.74384 6.06551 -21.8757 -358.397
lowerback 3.47001 -0.0124328 -0.946356
upperback 1.11317 -0.0359544 1.68079
thorax -0.801669 -0.0215566 2.25674
lowerneck -14.0905 2.91598 -10.5147
upperneck 41.9438 8.33082 -1.32382
head 17.6359 1.37182 2.7166
rclavicle -2.46493e-014 7.95139e-015
rhumerus -29.2002 -0.649132 -79.5129
rradius 36.1704
rwrist 18.4658
rhand -21.3269 2.32197
rfingers 7.12502
rthumb 5.05869 -27.5977
lclavicle -2.46493e-014 7.95139e-015
lhumerus -32.3227 17.179 75.9244
lradius 34.0921
lwrist -0.249738
lhand -17.2184 25.9042
lfingers 7.12502
lthumb 9.02464 55.6911
rfemur -12.7655 5.48269 18.6627
rtibia 28.4958
rfoot -18.333 -0.296798
rtoes 8.43564
lfemur -21.38 -6.69768 -15.6969
ltibia 22.8817
lfoot -13.5279 -18.3655
ltoes -32.0037
652
root -1.49814 29.1229 -6.75845 6.09213 -21.1455 -358.468
lowerback 3.45887 -0.00525673 -0.886338
upperback 1.11898 -0.023929 1.72722
thorax -0.790052 -0.0157122 2.27022
lowerneck -14.1712 2.91277 -10.4239
upperneck 42.0603 8.37817 -1.41237
head 17.7364 1.38628 2.67673
rclavicle -1.41137e-014 -3.97569e-015
rhumerus -29.027 -0.28831 -79.4752
rradius 35.8995
rwrist 18.649
rhand -21.0279 2.34959
rfingers 7.12502
rthumb 5.34741 -27.5629
lclavicle -1.41137e-014 -3.97569e-015
lhumerus -32.3729 17.0952 76.1433
lradius 33.8341
lwrist -0.466219
lhand -17.1884 26.055
lfingers 7.12502
lthumb 9.05354 55.8407
rfemur -12.6003 5.26247 18.9515
rtibia 28.4015
rfoot -18.4722 -0.703764
rtoes 8.54453
lfemur -21.5308 -5.6331 -15.9596
ltibia 23.4587
lfoot -13.4593 -17.1814
ltoes -30.4848
